Gait_lateral_29_analogdata.mot
version=1
nRows=38
nColumns=19
inDegrees=yes
endheader
time	1_ground_force_vx	1_ground_force_vy	1_ground_force_vz	1_ground_force_px	1_ground_force_py	1_ground_force_pz	1_ground_torque_x	1_ground_torque_y	1_ground_torque_z	2_ground_force_vx	2_ground_force_vy	2_ground_force_vz	2_ground_force_px	2_ground_force_py	2_ground_force_pz	2_ground_torque_x	2_ground_torque_y	2_ground_torque_z
0.440000	-25.182238	515.268677	-23.653402	-0.098093	0.000000	-0.251308	-0.015589	0.318969	-0.014642	0.000000	0.000000	-0.000000	-0.200000	0.000000	0.302000	0.000000	0.000000	-0.000000
0.441000	-22.064236	523.666809	-19.849226	-0.099716	0.000000	-0.251752	-0.022748	0.539887	-0.020464	0.000000	0.000000	-0.000000	-0.200000	0.000000	0.302000	0.000000	0.000000	-0.000000
0.442000	-22.331494	527.515930	-23.653402	-0.100742	0.000000	-0.251473	-0.010914	0.257819	-0.011560	0.000000	0.000000	-0.000000	-0.200000	0.000000	0.302000	0.000000	0.000000	-0.000000
0.443000	-23.667780	524.366638	-22.237896	-0.100207	0.000000	-0.250842	-0.016827	0.372806	-0.015810	0.000000	0.000000	-0.000000	-0.200000	0.000000	0.302000	0.000000	0.000000	-0.000000
0.444000	-24.736809	528.915649	-23.564934	-0.100318	0.000000	-0.250123	-0.009413	0.201268	-0.008967	0.000000	0.000000	-0.000000	-0.200000	0.000000	0.302000	0.000000	0.000000	-0.000000
0.445000	-23.756867	528.915649	-22.503303	-0.100057	0.000000	-0.251149	-0.001011	0.022518	-0.000958	0.000000	0.000000	-0.000000	-0.200000	0.000000	0.302000	0.000000	0.000000	-0.000000
0.446000	-25.093153	527.515930	-23.211058	-0.099642	0.000000	-0.250335	-0.007543	0.158582	-0.006978	0.000000	0.000000	-0.000000	-0.200000	0.000000	0.302000	0.000000	0.000000	-0.000000
0.447000	-24.024123	527.166016	-22.503303	-0.100004	0.000000	-0.249854	-0.000431	0.009448	-0.000403	0.000000	0.000000	-0.000000	-0.200000	0.000000	0.302000	0.000000	0.000000	-0.000000
0.448000	-24.469552	528.215759	-22.149425	-0.099510	0.000000	-0.249172	-0.000782	0.016881	-0.000708	0.000000	0.000000	-0.000000	-0.200000	0.000000	0.302000	0.000000	0.000000	-0.000000
0.449000	-23.667781	530.665222	-20.114633	-0.099631	0.000000	-0.249924	0.000128	-0.002859	0.000108	0.000000	0.000000	-0.000000	-0.200000	0.000000	0.302000	0.000000	0.000000	-0.000000
0.450000	-23.133265	527.515930	-19.406879	-0.098604	0.000000	-0.249204	-0.007406	0.168880	-0.006213	0.000000	0.000000	-0.000000	-0.200000	0.000000	0.302000	0.000000	0.000000	-0.000000
0.451000	-21.886065	527.166016	-19.229942	-0.098542	0.000000	-0.249599	-0.003942	0.094951	-0.003464	0.000000	0.000000	-0.000000	-0.200000	0.000000	0.302000	0.000000	0.000000	-0.000000
0.452000	-24.380467	523.316895	-21.618610	-0.098081	0.000000	-0.248433	-0.000720	0.015454	-0.000638	0.000000	0.000000	-0.000000	-0.200000	0.000000	0.302000	0.000000	0.000000	-0.000000
0.453000	-22.064237	525.066467	-17.637495	-0.098128	0.000000	-0.248447	-0.009564	0.227591	-0.007645	0.000000	0.000000	-0.000000	-0.200000	0.000000	0.302000	0.000000	0.000000	-0.000000
0.454000	-23.044181	528.565735	-17.991373	-0.099012	0.000000	-0.246703	-0.008926	0.204740	-0.006969	0.000000	0.000000	-0.000000	-0.200000	0.000000	0.302000	0.000000	0.000000	-0.000000
0.455000	-20.015264	532.064941	-18.610656	-0.099620	0.000000	-0.247295	0.000041	-0.001084	0.000038	0.000000	0.000000	-0.000000	-0.200000	0.000000	0.302000	0.000000	0.000000	-0.000000
0.456000	-23.311436	531.015137	-20.114633	-0.099410	0.000000	-0.246514	-0.007305	0.166412	-0.006304	0.000000	0.000000	-0.000000	-0.200000	0.000000	0.302000	0.000000	0.000000	-0.000000
0.457000	-23.400523	533.114685	-18.522188	-0.099267	0.000000	-0.246111	-0.001724	0.039276	-0.001365	0.000000	0.000000	-0.000000	-0.200000	0.000000	0.302000	0.000000	0.000000	-0.000000
0.458000	-24.380467	536.263977	-19.583818	-0.099460	0.000000	-0.246157	0.005649	-0.124256	0.004538	0.000000	0.000000	-0.000000	-0.200000	0.000000	0.302000	0.000000	0.000000	-0.000000
0.459000	-24.202296	533.814514	-19.229942	-0.098987	0.000000	-0.246355	-0.002536	0.055932	-0.002015	0.000000	0.000000	-0.000000	-0.200000	0.000000	0.302000	0.000000	0.000000	-0.000000
0.460000	-25.182239	534.864319	-18.610657	-0.099537	0.000000	-0.246276	0.004561	-0.096880	0.003371	0.000000	0.000000	-0.000000	-0.200000	0.000000	0.302000	0.000000	0.000000	-0.000000
0.461000	-23.935039	532.064941	-17.372087	-0.097772	0.000000	-0.244871	0.005002	-0.111194	0.003631	0.000000	0.000000	-0.000000	-0.200000	0.000000	0.302000	0.000000	0.000000	-0.000000
0.462000	-24.647725	536.263977	-17.018211	-0.098679	0.000000	-0.246372	-0.017970	0.390977	-0.012408	0.000000	0.000000	-0.000000	-0.200000	0.000000	0.302000	0.000000	0.000000	-0.000000
0.463000	-23.756868	533.114685	-17.637495	-0.098927	0.000000	-0.245418	0.000447	-0.010040	0.000332	0.000000	0.000000	-0.000000	-0.200000	0.000000	0.302000	0.000000	0.000000	-0.000000
0.464000	-24.647726	533.464600	-15.691173	-0.098364	0.000000	-0.243495	-0.010065	0.217839	-0.006407	0.000000	0.000000	-0.000000	-0.200000	0.000000	0.302000	0.000000	0.000000	-0.000000
0.465000	-23.400524	531.015137	-14.983418	-0.097494	0.000000	-0.243390	-0.000966	0.021923	-0.000619	0.000000	0.000000	-0.000000	-0.200000	0.000000	0.302000	0.000000	0.000000	-0.000000
0.466000	-24.469553	535.564148	-14.629542	-0.098975	0.000000	-0.244134	-0.003876	0.084845	-0.002318	0.000000	0.000000	-0.000000	-0.200000	0.000000	0.302000	0.000000	0.000000	-0.000000
0.467000	-22.598750	534.864319	-16.310457	-0.097894	0.000000	-0.242934	0.002082	-0.049266	0.001502	0.000000	0.000000	-0.000000	-0.200000	0.000000	0.302000	0.000000	0.000000	-0.000000
0.468000	-24.024124	534.514404	-15.160357	-0.098035	0.000000	-0.242720	0.004706	-0.104711	0.002970	0.000000	0.000000	-0.000000	-0.200000	0.000000	0.302000	0.000000	0.000000	-0.000000
0.469000	-24.558639	536.963867	-15.425765	-0.098697	0.000000	-0.242993	-0.001514	0.033103	-0.000951	0.000000	0.000000	-0.000000	-0.200000	0.000000	0.302000	0.000000	0.000000	-0.000000
0.470000	-25.182239	536.963867	-14.983418	-0.097827	0.000000	-0.241856	0.012342	-0.263177	0.007344	0.000000	0.000000	-0.000000	-0.200000	0.000000	0.302000	0.000000	0.000000	-0.000000
0.471000	-25.271326	540.463074	-15.602703	-0.098007	0.000000	-0.241738	0.004271	-0.091346	0.002637	0.000000	0.000000	-0.000000	-0.200000	0.000000	0.302000	0.000000	0.000000	-0.000000
0.472000	-26.340354	542.912537	-15.337296	-0.098257	0.000000	-0.242689	-0.002499	0.051501	-0.001455	0.000000	0.000000	-0.000000	-0.200000	0.000000	0.302000	0.000000	0.000000	-0.000000
0.473000	-26.607612	539.413330	-15.160358	-0.098148	0.000000	-0.242218	0.005414	-0.109758	0.003085	0.000000	0.000000	-0.000000	-0.200000	0.000000	0.302000	0.000000	0.000000	-0.000000
0.474000	-26.607612	538.013611	-13.921788	-0.097205	0.000000	-0.240613	0.007887	-0.159480	0.004127	0.000000	0.000000	-0.000000	-0.200000	0.000000	0.302000	0.000000	0.000000	-0.000000
0.475000	-25.449497	542.562622	-13.833319	-0.097106	0.000000	-0.242160	-0.010588	0.225730	-0.005755	0.000000	0.000000	-0.000000	-0.200000	0.000000	0.302000	0.000000	0.000000	-0.000000
0.476000	-26.429441	536.613953	-13.921788	-0.098487	0.000000	-0.240660	-0.009000	0.182735	-0.004741	0.000000	0.000000	-0.000000	-0.200000	0.000000	0.302000	0.000000	0.000000	-0.000000
0.477000	-26.340355	538.013611	-12.417812	-0.097535	0.000000	-0.237647	-0.003008	0.061448	-0.001418	0.000000	0.000000	-0.000000	-0.200000	0.000000	0.302000	0.000000	0.000000	-0.000000
